<svg width="251" height="49" viewBox="0 0 251 49" fill="none" xmlns="http://www.w3.org/2000/svg">
<g filter="url(#filter0_d_1127_28)">
<path d="M9.936 3.96033C9.136 4.05633 8.672 4.39233 8.544 4.96833C8.448 5.54433 8.4 6.15233 8.4 6.79233V33.8643C8.4 34.5363 8.448 35.1603 8.544 35.7363C8.672 36.2803 9.136 36.6003 9.936 36.6963C10.736 36.6643 11.2 36.3603 11.328 35.7843C11.456 35.1763 11.52 34.5363 11.52 33.8643V6.79233C11.52 6.15233 11.456 5.54433 11.328 4.96833C11.2 4.36033 10.736 4.02433 9.936 3.96033ZM15.456 8.47233V32.3283C15.456 34.1523 15.28 35.7363 14.928 37.0803C14.576 38.3923 13.568 39.4963 11.904 40.3923C11.392 40.6163 10.704 40.7283 9.84 40.7283C9.008 40.7283 8.4 40.6163 8.016 40.3923C6.288 39.4963 5.264 38.3923 4.944 37.0803C4.624 35.7363 4.464 34.1523 4.464 32.3283V8.47233C4.464 6.64833 4.624 5.08033 4.944 3.76833C5.264 2.45633 6.288 1.33633 8.016 0.408331C8.4 0.184332 9.008 0.0723324 9.84 0.0723324C10.704 0.0723324 11.392 0.184332 11.904 0.408331C13.568 1.33633 14.576 2.45633 14.928 3.76833C15.28 5.08033 15.456 6.64833 15.456 8.47233ZM29.5298 36.6963C30.3298 36.6323 30.7938 36.3123 30.9218 35.7363C31.0498 35.1283 31.1138 34.4883 31.1138 33.8163C31.0818 28.4403 31.0658 22.9203 31.0658 17.2563C31.0658 11.5923 31.0658 6.04033 31.0658 0.600331C31.7698 0.600331 32.4098 0.600331 32.9858 0.600331C33.5938 0.600331 34.2658 0.600331 35.0018 0.600331C35.0018 5.88033 35.0018 11.1763 35.0018 16.4883C35.0018 21.8003 35.0018 27.0803 35.0018 32.3283C35.0018 34.1523 34.8258 35.7363 34.4738 37.0803C34.1538 38.3923 33.1618 39.4963 31.4978 40.3923C30.9858 40.6163 30.2978 40.7283 29.4338 40.7283C28.6338 40.7283 28.0098 40.6163 27.5618 40.3923C25.8658 39.4963 24.8578 38.3923 24.5378 37.0803C24.2178 35.7363 24.0578 34.1523 24.0578 32.3283C24.0578 27.0803 24.0578 21.8003 24.0578 16.4883C24.0578 11.1763 24.0578 5.88033 24.0578 0.600331C24.7618 0.600331 25.4018 0.600331 25.9778 0.600331C26.5858 0.600331 27.2578 0.600331 27.9938 0.600331C27.9938 6.04033 27.9778 11.5923 27.9458 17.2563C27.9458 22.9203 27.9458 28.4403 27.9458 33.8163C27.9458 34.4883 28.0098 35.1123 28.1378 35.6883C28.2658 36.2643 28.7298 36.6003 29.5298 36.6963ZM47.0115 40.2483C46.9795 34.4883 46.9475 28.5043 46.9155 22.2963C46.8835 16.0883 46.8675 10.0883 46.8675 4.29633C46.4515 4.26433 45.8595 4.26433 45.0915 4.29633C44.3235 4.32833 43.7475 4.32833 43.3635 4.29633C43.3635 3.52833 43.3635 2.92033 43.3635 2.47233C43.3635 1.99233 43.3635 1.36833 43.3635 0.600331C44.9955 0.600331 46.8515 0.600331 48.9315 0.600331C51.0435 0.600331 52.9155 0.600331 54.5475 0.600331C54.5475 1.36833 54.5475 1.99233 54.5475 2.47233C54.5475 2.92033 54.5475 3.52833 54.5475 4.29633C54.0675 4.29633 53.4435 4.29633 52.6755 4.29633C51.9075 4.29633 51.3155 4.29633 50.8995 4.29633C50.8995 10.1203 50.8995 16.1203 50.8995 22.2963C50.8995 28.4723 50.8995 34.4563 50.8995 40.2483C50.1315 40.2483 49.4755 40.2483 48.9315 40.2483C48.3875 40.2483 47.7475 40.2483 47.0115 40.2483ZM71.9344 40.2483C70.9744 40.2803 69.9824 40.3283 68.9584 40.3923C67.9344 40.4243 67.1824 40.3283 66.7024 40.1043C65.0064 39.2083 63.9984 38.1043 63.6784 36.7923C63.3584 35.4483 63.1984 33.8643 63.1984 32.0403C63.1984 26.8243 63.1984 21.6083 63.1984 16.3923C63.1984 11.1443 63.1984 5.88033 63.1984 0.600331C63.9024 0.600331 64.5424 0.600331 65.1184 0.600331C65.7264 0.600331 66.3984 0.600331 67.1344 0.600331C67.1344 6.00833 67.1184 11.4483 67.0864 16.9203C67.0864 22.3923 67.0864 27.8323 67.0864 33.2403C67.0864 33.9763 67.1824 34.6483 67.3744 35.2563C67.5664 35.8643 68.2544 36.1683 69.4384 36.1683H71.9344C71.9344 37.1603 71.9344 37.8483 71.9344 38.2323C71.9344 38.6163 71.9344 39.2883 71.9344 40.2483ZM91.6256 40.2483C90.6016 40.2483 89.3696 40.2963 87.9296 40.3923C86.5216 40.4563 85.2896 40.3603 84.2336 40.1043C82.7936 39.6243 81.8496 38.6483 81.4016 37.1763C80.9536 35.6723 80.7296 33.9603 80.7296 32.0403C80.7296 28.2003 80.7296 24.3603 80.7296 20.5203C80.7296 16.6483 80.7296 12.7923 80.7296 8.95233C80.7296 7.35233 80.9056 5.73633 81.2576 4.10433C81.6096 2.44033 82.6016 1.36833 84.2336 0.88833C85.1936 0.600332 86.3936 0.488333 87.8336 0.552332C89.3056 0.584332 90.5696 0.600331 91.6256 0.600331C91.6256 1.46433 91.6256 2.07233 91.6256 2.42433C91.6256 2.77633 91.6256 3.38433 91.6256 4.24833H86.9696C85.7856 4.24833 85.0976 4.61633 84.9056 5.35233C84.7136 6.05633 84.6176 6.77633 84.6176 7.51233C84.6176 9.24033 84.6176 10.9683 84.6176 12.6963C84.6496 14.4243 84.6656 16.1523 84.6656 17.8803H87.8336V21.6243C87.1296 21.6563 86.5856 21.6723 86.2016 21.6723C85.8496 21.6403 85.3376 21.6243 84.6656 21.6243V22.1523L84.6176 33.2403C84.6176 34.0083 84.7136 34.6963 84.9056 35.3043C85.0976 35.8803 85.7856 36.1683 86.9696 36.1683H91.6256C91.6256 37.1923 91.6256 37.8963 91.6256 38.2803C91.6256 38.6323 91.6256 39.2883 91.6256 40.2483ZM103.637 40.2483C103.605 34.4883 103.573 28.5043 103.541 22.2963C103.509 16.0883 103.493 10.0883 103.493 4.29633C103.077 4.26433 102.485 4.26433 101.717 4.29633C100.949 4.32833 100.373 4.32833 99.9885 4.29633C99.9885 3.52833 99.9885 2.92033 99.9885 2.47233C99.9885 1.99233 99.9885 1.36833 99.9885 0.600331C101.621 0.600331 103.477 0.600331 105.557 0.600331C107.669 0.600331 109.541 0.600331 111.173 0.600331C111.173 1.36833 111.173 1.99233 111.173 2.47233C111.173 2.92033 111.173 3.52833 111.173 4.29633C110.693 4.29633 110.069 4.29633 109.301 4.29633C108.533 4.29633 107.941 4.29633 107.525 4.29633C107.525 10.1203 107.525 16.1203 107.525 22.2963C107.525 28.4723 107.525 34.4563 107.525 40.2483C106.757 40.2483 106.101 40.2483 105.557 40.2483C105.013 40.2483 104.373 40.2483 103.637 40.2483Z" fill="#1BB70B"/>
<path d="M125.295 3.96033C124.495 4.05633 124.031 4.39233 123.903 4.96833C123.775 5.54433 123.711 6.15233 123.711 6.79233C123.743 15.8163 123.743 24.8243 123.711 33.8163C123.711 34.4883 123.775 35.1123 123.903 35.6883C124.031 36.2323 124.495 36.5523 125.295 36.6483C126.095 36.6163 126.559 36.3123 126.687 35.7363C126.815 35.1283 126.879 34.4883 126.879 33.8163C126.847 32.7603 126.831 32.2163 126.831 32.1843C126.831 32.1203 126.831 32.1683 126.831 32.3283C126.831 32.4563 126.831 32.4883 126.831 32.4243C126.831 32.3603 126.831 31.7683 126.831 30.6483H130.767C130.767 32.5683 130.767 33.2403 130.767 32.6643C130.767 32.0563 130.767 31.9443 130.767 32.3283C130.767 34.1523 130.591 35.7363 130.239 37.0803C129.919 38.3923 128.927 39.4963 127.263 40.3923C126.847 40.6163 126.159 40.7283 125.199 40.7283C124.399 40.7283 123.775 40.6163 123.327 40.3923C121.631 39.4963 120.623 38.3923 120.303 37.0803C119.983 35.7363 119.823 34.1523 119.823 32.3283C119.823 28.3603 119.823 24.3923 119.823 20.4243C119.823 16.4563 119.823 12.4723 119.823 8.47233C119.823 6.64833 119.983 5.08033 120.303 3.76833C120.623 2.45633 121.631 1.33633 123.327 0.408331C123.775 0.184332 124.399 0.0723324 125.199 0.0723324C126.063 0.0723324 126.751 0.184332 127.263 0.408331C128.927 1.30433 129.919 2.40833 130.239 3.72033C130.591 5.03233 130.767 6.60033 130.767 8.42433H126.831L126.879 6.79233C126.879 6.15233 126.815 5.54433 126.687 4.96833C126.559 4.36033 126.095 4.02433 125.295 3.96033ZM144.842 3.96033C144.042 4.05633 143.578 4.39233 143.45 4.96833C143.354 5.54433 143.306 6.15233 143.306 6.79233V33.8643C143.306 34.5363 143.354 35.1603 143.45 35.7363C143.578 36.2803 144.042 36.6003 144.842 36.6963C145.642 36.6643 146.106 36.3603 146.234 35.7843C146.362 35.1763 146.426 34.5363 146.426 33.8643V6.79233C146.426 6.15233 146.362 5.54433 146.234 4.96833C146.106 4.36033 145.642 4.02433 144.842 3.96033ZM150.362 8.47233V32.3283C150.362 34.1523 150.186 35.7363 149.834 37.0803C149.482 38.3923 148.474 39.4963 146.81 40.3923C146.298 40.6163 145.61 40.7283 144.746 40.7283C143.914 40.7283 143.306 40.6163 142.922 40.3923C141.194 39.4963 140.17 38.3923 139.85 37.0803C139.53 35.7363 139.37 34.1523 139.37 32.3283V8.47233C139.37 6.64833 139.53 5.08033 139.85 3.76833C140.17 2.45633 141.194 1.33633 142.922 0.408331C143.306 0.184332 143.914 0.0723324 144.746 0.0723324C145.61 0.0723324 146.298 0.184332 146.81 0.408331C148.474 1.33633 149.482 2.45633 149.834 3.76833C150.186 5.08033 150.362 6.64833 150.362 8.47233ZM164.436 3.91233C163.636 4.04033 163.172 4.39233 163.044 4.96833C162.916 5.54433 162.852 6.15233 162.852 6.79233C162.852 12.2003 162.852 17.7843 162.852 23.5443C162.884 29.3043 162.9 34.8723 162.9 40.2483C162.164 40.2483 161.492 40.2483 160.884 40.2483C160.308 40.2483 159.668 40.2483 158.964 40.2483C158.964 35.0323 158.964 29.7523 158.964 24.4083C158.964 19.0323 158.964 13.7203 158.964 8.47233C158.964 6.64833 159.124 5.08033 159.444 3.76833C159.764 2.45633 160.772 1.33633 162.468 0.408331C162.916 0.184332 163.54 0.0723324 164.34 0.0723324C165.14 0.0723324 165.828 0.184332 166.404 0.408331C168.068 1.33633 169.06 2.45633 169.38 3.76833C169.732 5.08033 169.908 6.64833 169.908 8.47233C169.876 13.7203 169.86 19.0323 169.86 24.4083C169.892 29.7523 169.908 35.0323 169.908 40.2483C169.172 40.2483 168.5 40.2483 167.892 40.2483C167.316 40.2483 166.676 40.2483 165.972 40.2483C165.972 34.8723 165.972 29.3043 165.972 23.5443C165.972 17.7843 165.988 12.2003 166.02 6.79233C166.02 6.15233 165.956 5.54433 165.828 4.96833C165.7 4.36033 165.236 4.00833 164.436 3.91233ZM181.918 40.2483C181.886 34.4883 181.854 28.5043 181.822 22.2963C181.79 16.0883 181.774 10.0883 181.774 4.29633C181.358 4.26433 180.766 4.26433 179.998 4.29633C179.23 4.32833 178.654 4.32833 178.27 4.29633C178.27 3.52833 178.27 2.92033 178.27 2.47233C178.27 1.99233 178.27 1.36833 178.27 0.600331C179.902 0.600331 181.758 0.600331 183.838 0.600331C185.95 0.600331 187.822 0.600331 189.454 0.600331C189.454 1.36833 189.454 1.99233 189.454 2.47233C189.454 2.92033 189.454 3.52833 189.454 4.29633C188.974 4.29633 188.35 4.29633 187.582 4.29633C186.814 4.29633 186.222 4.29633 185.806 4.29633C185.806 10.1203 185.806 16.1203 185.806 22.2963C185.806 28.4723 185.806 34.4563 185.806 40.2483C185.038 40.2483 184.382 40.2483 183.838 40.2483C183.294 40.2483 182.654 40.2483 181.918 40.2483ZM198.105 0.600331H198.153C199.209 0.600331 200.457 0.584332 201.897 0.552332C203.337 0.488333 204.537 0.600332 205.497 0.88833C207.129 1.36833 208.121 2.44033 208.473 4.10433C208.857 5.73633 209.049 7.35233 209.049 8.95233C209.049 9.08033 209.049 9.33633 209.049 9.72033C209.049 10.0723 209.049 10.3923 209.049 10.6803C209.049 11.1283 209.049 11.6403 209.049 12.2163C209.049 12.7923 209.049 13.1283 209.049 13.2243C209.049 14.3763 208.969 15.5443 208.809 16.7283C208.649 17.9123 208.281 18.9203 207.705 19.7523C208.281 20.6163 208.649 21.6563 208.809 22.8723C208.969 24.0563 209.049 25.2083 209.049 26.3283C209.049 26.5843 209.049 27.4163 209.049 28.8243C209.049 30.2003 209.049 31.7043 209.049 33.3363C209.049 34.9683 209.049 36.4883 209.049 37.8963C209.049 39.2723 209.049 40.0563 209.049 40.2483H205.113V24.8883C205.113 24.1523 205.017 23.4323 204.825 22.7283C204.633 21.9923 203.961 21.6243 202.809 21.6243H202.137C202.137 24.7603 202.137 27.8803 202.137 30.9843C202.137 34.0883 202.137 37.1763 202.137 40.2483H198.105C198.105 33.6563 198.105 27.0643 198.105 20.4723C198.105 13.8483 198.105 7.22433 198.105 0.600331ZM202.137 4.24833C202.137 6.55233 202.137 8.84033 202.137 11.1123C202.137 13.3843 202.137 15.6563 202.137 17.9283H202.809C203.961 17.9283 204.633 17.5763 204.825 16.8723C205.017 16.1683 205.113 15.4323 205.113 14.6643C205.113 13.4803 205.113 12.2963 205.113 11.1123C205.113 9.89633 205.113 8.69633 205.113 7.51233C205.113 6.77633 205.017 6.05633 204.825 5.35233C204.633 4.61633 203.961 4.24833 202.809 4.24833H202.137ZM223.17 3.96033C222.37 4.05633 221.906 4.39233 221.778 4.96833C221.682 5.54433 221.634 6.15233 221.634 6.79233V33.8643C221.634 34.5363 221.682 35.1603 221.778 35.7363C221.906 36.2803 222.37 36.6003 223.17 36.6963C223.97 36.6643 224.434 36.3603 224.562 35.7843C224.69 35.1763 224.754 34.5363 224.754 33.8643V6.79233C224.754 6.15233 224.69 5.54433 224.562 4.96833C224.434 4.36033 223.97 4.02433 223.17 3.96033ZM228.69 8.47233V32.3283C228.69 34.1523 228.514 35.7363 228.162 37.0803C227.81 38.3923 226.802 39.4963 225.138 40.3923C224.626 40.6163 223.938 40.7283 223.074 40.7283C222.242 40.7283 221.634 40.6163 221.25 40.3923C219.522 39.4963 218.498 38.3923 218.178 37.0803C217.858 35.7363 217.698 34.1523 217.698 32.3283V8.47233C217.698 6.64833 217.858 5.08033 218.178 3.76833C218.498 2.45633 219.522 1.33633 221.25 0.408331C221.634 0.184332 222.242 0.0723324 223.074 0.0723324C223.938 0.0723324 224.626 0.184332 225.138 0.408331C226.802 1.33633 227.81 2.45633 228.162 3.76833C228.514 5.08033 228.69 6.64833 228.69 8.47233ZM246.028 40.2483C245.068 40.2803 244.076 40.3283 243.052 40.3923C242.028 40.4243 241.276 40.3283 240.796 40.1043C239.1 39.2083 238.092 38.1043 237.772 36.7923C237.452 35.4483 237.292 33.8643 237.292 32.0403C237.292 26.8243 237.292 21.6083 237.292 16.3923C237.292 11.1443 237.292 5.88033 237.292 0.600331C237.996 0.600331 238.636 0.600331 239.212 0.600331C239.82 0.600331 240.492 0.600331 241.228 0.600331C241.228 6.00833 241.212 11.4483 241.18 16.9203C241.18 22.3923 241.18 27.8323 241.18 33.2403C241.18 33.9763 241.276 34.6483 241.468 35.2563C241.66 35.8643 242.348 36.1683 243.532 36.1683H246.028C246.028 37.1603 246.028 37.8483 246.028 38.2323C246.028 38.6163 246.028 39.2883 246.028 40.2483Z" fill="#4E4E4E"/>
</g>
<defs>
<filter id="filter0_d_1127_28" x="0.463989" y="0.0723267" width="249.564" height="48.656" filterUnits="userSpaceOnUse" color-interpolation-filters="sRGB">
<feFlood flood-opacity="0" result="BackgroundImageFix"/>
<feColorMatrix in="SourceAlpha" type="matrix" values="0 0 0 0 0 0 0 0 0 0 0 0 0 0 0 0 0 0 127 0" result="hardAlpha"/>
<feOffset dy="4"/>
<feGaussianBlur stdDeviation="2"/>
<feComposite in2="hardAlpha" operator="out"/>
<feColorMatrix type="matrix" values="0 0 0 0 0 0 0 0 0 0 0 0 0 0 0 0 0 0 0.1 0"/>
<feBlend mode="normal" in2="BackgroundImageFix" result="effect1_dropShadow_1127_28"/>
<feBlend mode="normal" in="SourceGraphic" in2="effect1_dropShadow_1127_28" result="shape"/>
</filter>
</defs>
</svg>
